<?xml version="1.0" standalone="no"?>
<!DOCTYPE svg PUBLIC "-//W3C//DTD SVG 20010904//EN"
 "http://www.w3.org/TR/2001/REC-SVG-20010904/DTD/svg10.dtd">
<svg version="1.0" xmlns="http://www.w3.org/2000/svg"
 width="1280.000000pt" height="1084.000000pt" viewBox="0 0 1280.000000 1084.000000"
 preserveAspectRatio="xMidYMid meet">
<g transform="translate(0.000000,1084.000000) scale(0.100000,-0.100000)"
fill="#3f51b5" stroke="none">
<path d="M296 10824 c-28 -27 -29 -63 -7 -153 21 -89 93 -239 316 -668 58
-111 105 -211 105 -222 0 -14 -6 -21 -18 -21 -50 0 -279 101 -397 175 -43 27
-87 66 -114 100 -56 70 -126 135 -146 135 -29 0 -37 -50 -32 -180 3 -69 10
-137 16 -151 45 -119 258 -221 614 -295 160 -33 338 -58 643 -89 374 -38 434
-52 542 -123 118 -78 291 -335 311 -462 13 -78 0 -134 -61 -258 -50 -101 -53
-111 -53 -184 l0 -77 -95 -42 c-541 -240 -634 -294 -776 -455 -223 -253 -343
-332 -927 -608 -69 -34 -49 -71 101 -187 137 -106 170 -136 192 -179 82 -158
276 -188 715 -113 195 33 311 34 382 3 87 -37 129 -95 208 -284 20 -49 66
-143 102 -208 183 -333 281 -669 327 -1118 16 -153 48 -588 66 -900 16 -278
38 -391 102 -525 48 -101 36 -154 -40 -187 -65 -29 -190 -34 -452 -18 -192 11
-229 11 -345 -4 -230 -30 -471 -92 -621 -161 -270 -124 -394 -327 -311 -508
51 -112 160 -202 372 -310 122 -62 185 -110 250 -189 64 -78 107 -173 180
-395 73 -221 132 -340 205 -413 95 -95 540 -292 812 -359 86 -21 202 -28 225
-13 17 11 42 85 49 147 8 64 -8 115 -49 161 -40 46 -97 74 -275 136 -165 57
-186 66 -232 104 -58 49 -223 309 -427 674 -206 367 -198 340 -90 340 46 0
160 -11 253 -25 93 -14 203 -25 244 -25 193 0 639 -45 824 -83 122 -26 905 6
1346 54 350 38 607 81 1080 180 588 124 660 138 860 173 373 64 607 86 910 86
342 0 417 -33 735 -325 272 -249 384 -311 706 -390 173 -42 315 -66 669 -110
503 -63 657 -96 896 -196 388 -161 727 -399 919 -644 88 -112 151 -213 321
-511 81 -142 176 -303 212 -357 110 -168 204 -230 547 -357 105 -39 255 -101
334 -137 89 -41 163 -68 191 -71 42 -4 49 -1 68 23 12 15 22 41 22 57 0 73
-75 232 -157 331 -61 73 -109 103 -178 112 -162 19 -310 126 -495 356 -182
227 -281 406 -429 779 -62 155 -129 304 -157 351 -90 150 -206 248 -394 334
-498 225 -815 424 -1069 670 -307 297 -474 617 -532 1020 -5 39 -14 142 -18
230 -12 227 -42 298 -214 500 -209 244 -174 329 237 575 183 109 274 227 296
379 37 260 -135 511 -473 690 -43 22 -87 41 -98 41 -18 0 -18 -2 5 -48 40 -79
96 -250 112 -344 18 -103 17 -104 -86 -285 -105 -183 -190 -303 -274 -387 -91
-91 -141 -120 -248 -142 -130 -28 -393 -4 -588 53 -188 56 -213 54 -574 -37
-488 -123 -747 -164 -1169 -182 -507 -21 -1027 19 -1397 109 -308 75 -627 234
-887 444 -117 94 -327 309 -428 439 -281 359 -480 732 -695 1300 -28 74 -95
218 -150 320 -126 236 -151 300 -156 410 -5 97 -7 94 83 164 34 26 68 62 77
79 19 41 42 166 56 300 22 217 -32 332 -126 270 -55 -36 -188 -261 -201 -339
-7 -41 -15 -42 -42 -8 -38 48 -81 210 -125 470 -40 235 -46 309 -50 634 -4
323 -18 448 -57 540 -40 90 -95 115 -144 65 -33 -32 -33 -106 0 -253 33 -145
33 -212 1 -249 -22 -26 -30 -28 -93 -27 -53 1 -85 8 -148 34 -180 76 -424 278
-507 420 -36 61 -44 90 -66 233 -23 150 -112 244 -191 202 -44 -22 -61 -62
-61 -142 1 -89 13 -119 92 -233 87 -126 120 -192 126 -251 6 -59 -12 -84 -69
-99 -63 -17 -123 15 -223 120 -81 85 -147 180 -416 593 -92 142 -155 217 -180
217 -5 0 -16 -7 -24 -16z"/>
</g>
</svg>
