<?xml version="1.0" standalone="no"?>
<!DOCTYPE svg PUBLIC "-//W3C//DTD SVG 20010904//EN"
 "http://www.w3.org/TR/2001/REC-SVG-20010904/DTD/svg10.dtd">
<svg version="1.0" xmlns="http://www.w3.org/2000/svg"
 width="1179.000000pt" height="1280.000000pt" viewBox="0 0 1179.000000 1280.000000"
 preserveAspectRatio="xMidYMid meet">
<g transform="translate(0.000000,1280.000000) scale(0.100000,-0.100000)"
fill="#3f51b5" stroke="none">
<path d="M7639 12751 c-102 -14 -293 -224 -380 -418 -47 -105 -47 -106 -63
-146 -9 -21 -25 -100 -37 -175 -26 -168 -25 -164 -46 -160 -31 6 -41 97 -48
413 -7 304 -14 371 -41 382 -17 6 -50 -21 -70 -58 -33 -65 -74 -345 -74 -510
0 -148 35 -340 105 -571 31 -103 4 -113 -107 -39 -41 27 -97 74 -125 104 -83
87 -186 310 -218 467 -22 114 -44 190 -61 218 -18 28 -55 29 -80 1 -17 -19
-19 -37 -18 -148 1 -79 7 -152 18 -196 34 -144 117 -382 154 -443 68 -112 259
-312 517 -542 33 -29 93 -85 134 -123 90 -83 206 -176 401 -322 283 -211 390
-303 633 -544 175 -172 215 -221 253 -307 49 -111 58 -145 41 -161 -13 -13
-22 -13 -78 1 -88 23 -127 49 -256 169 -131 123 -175 150 -342 211 -143 53
-232 99 -308 161 -66 54 -89 62 -113 40 -31 -28 -33 -89 -10 -255 39 -285 68
-409 120 -510 51 -101 211 -292 281 -336 51 -32 129 -51 237 -59 252 -18 296
-89 205 -331 -23 -61 -72 -211 -108 -335 -86 -291 -122 -397 -148 -436 -27
-41 -103 -81 -232 -124 l-100 -34 -275 0 c-232 0 -291 3 -380 20 -82 15 -145
20 -285 19 -171 -1 -189 -3 -371 -42 -349 -75 -474 -84 -750 -58 -585 57
-1696 52 -2499 -10 -137 -11 -357 -17 -700 -18 -492 -2 -501 -3 -570 -25 -95
-31 -286 -126 -420 -207 -204 -124 -252 -148 -525 -260 l-115 -47 -170 -171
c-237 -239 -405 -442 -433 -525 -19 -54 -51 -282 -86 -602 -9 -75 -20 -148
-25 -163 -6 -14 -14 -76 -17 -136 -7 -106 -6 -110 13 -110 11 0 27 8 34 17 8
9 70 53 139 98 69 45 132 91 141 101 9 11 40 61 68 112 50 87 54 92 85 92 40
0 55 18 142 164 86 146 98 143 109 -28 9 -154 111 -618 210 -956 76 -260 82
-304 61 -430 -19 -110 -68 -276 -96 -323 -11 -18 -34 -59 -52 -92 -38 -70
-110 -145 -194 -200 -61 -41 -270 -149 -384 -199 -78 -34 -99 -52 -153 -131
-40 -59 -41 -61 -39 -140 4 -139 32 -700 47 -945 43 -655 44 -866 9 -1187 -33
-296 -38 -522 -11 -570 9 -18 26 -37 38 -43 17 -10 25 -6 59 32 35 37 41 41
54 28 15 -17 42 -126 51 -214 9 -77 48 -192 76 -222 45 -48 246 -94 410 -94
123 0 156 11 175 60 8 20 33 54 54 74 28 26 40 46 40 65 0 52 -132 177 -250
236 -127 63 -205 148 -258 279 -22 54 -24 79 -32 320 -5 143 -16 456 -26 694
-15 374 -16 464 -5 665 18 337 19 343 72 390 28 26 131 82 289 159 408 200
430 210 437 193 9 -24 -90 -242 -159 -351 -90 -143 -89 -146 177 -464 450
-538 758 -971 953 -1340 19 -37 42 -104 53 -154 25 -112 57 -180 88 -184 29
-5 61 24 61 55 0 19 5 24 21 21 22 -3 35 -30 93 -189 32 -87 100 -152 204
-192 63 -25 203 -47 299 -47 88 0 117 9 181 57 30 23 33 29 27 60 -5 28 -1 41
19 68 34 44 33 55 -7 91 -57 54 -102 81 -258 164 -85 44 -180 100 -210 124
-68 53 -116 123 -125 182 -8 53 0 43 -229 326 -212 264 -290 364 -487 633
-209 284 -257 387 -243 530 8 82 29 136 68 172 17 17 113 89 212 160 280 203
547 413 666 523 46 43 249 282 288 340 21 30 60 96 86 145 70 131 113 202 128
208 6 2 37 -4 67 -14 62 -21 199 -49 375 -78 365 -60 299 -56 895 -56 546 1
593 3 980 40 347 34 592 54 605 48 8 -2 17 -13 20 -22 3 -10 -13 -112 -35
-227 -22 -115 -42 -222 -45 -239 -3 -16 -12 -68 -21 -115 -21 -117 -68 -406
-94 -575 -11 -77 -25 -160 -30 -185 -5 -25 -14 -110 -20 -190 -6 -80 -15 -199
-20 -266 -12 -148 -73 -609 -101 -759 -30 -160 -64 -291 -96 -365 -24 -57 -27
-78 -28 -176 0 -80 4 -116 14 -128 18 -22 37 -6 45 39 15 77 49 52 66 -49 12
-71 11 -78 -13 -153 -33 -102 -41 -165 -32 -266 7 -73 11 -85 39 -113 53 -53
248 -95 451 -98 141 -1 159 6 185 74 11 30 29 53 54 69 20 13 36 30 36 37 0
17 -58 83 -216 247 l-134 139 0 361 c0 378 2 404 45 607 15 68 41 208 60 310
l33 185 89 180 c48 99 109 230 135 290 83 197 168 406 168 414 0 12 30 22 42
15 20 -12 191 -301 262 -441 43 -86 47 -100 121 -348 76 -258 110 -357 152
-445 72 -151 104 -254 128 -400 49 -301 77 -535 85 -710 5 -107 12 -206 16
-220 18 -65 73 -81 102 -30 9 17 24 29 32 28 8 -2 32 -32 52 -68 l38 -65 0
-126 c0 -237 36 -284 256 -330 84 -17 118 -19 236 -13 147 7 158 12 158 62 0
10 14 38 31 62 28 39 30 45 17 68 -15 30 -185 185 -281 257 -83 63 -104 101
-152 280 -37 140 -89 299 -140 430 -68 176 -120 359 -204 710 -44 186 -61 295
-61 394 0 79 -13 185 -54 441 -74 465 -132 1351 -94 1435 16 35 55 57 173 95
153 50 230 94 475 268 154 110 198 149 226 201 13 25 42 68 64 95 21 28 54 76
72 108 87 155 274 413 549 758 154 193 191 247 277 395 207 357 292 614 307
935 6 148 42 429 56 444 5 6 33 16 61 23 102 26 280 131 308 182 6 12 11 80
11 161 l0 140 -40 74 c-41 73 -41 74 -41 179 0 90 4 116 26 174 14 37 40 108
57 156 31 92 46 109 78 89 53 -33 62 -2 24 84 -34 77 -33 115 7 159 17 20 34
53 37 72 7 40 19 49 76 58 33 5 53 20 117 85 110 113 167 200 234 357 32 76
81 179 109 228 83 145 97 210 49 241 -37 25 -106 6 -239 -66 -179 -98 -246
-129 -325 -149 -85 -21 -227 -85 -279 -125 -55 -41 -59 -17 -12 64 22 40 41
73 41 76 0 2 25 44 55 94 30 50 55 93 55 96 0 3 17 31 39 62 21 31 59 89 84
127 57 88 226 256 377 375 63 50 187 151 275 224 88 73 185 151 215 173 93 70
257 248 379 412 125 170 141 208 226 550 54 217 63 314 46 515 -12 145 -24
185 -66 212 -28 19 -50 10 -89 -37 -31 -37 -33 -43 -46 -194 -6 -66 -15 -168
-20 -227 -20 -219 -94 -439 -174 -517 -41 -40 -59 -36 -81 15 -45 109 -60 240
-74 658 -8 243 -11 271 -29 295 -25 34 -63 35 -79 0 -43 -90 -63 -260 -63
-552 0 -180 4 -240 22 -340 12 -69 22 -168 22 -227 1 -97 -1 -109 -26 -151
-33 -57 -164 -192 -241 -249 -87 -65 -83 -73 -142 282 -85 506 -120 641 -236
918 -61 145 -117 241 -149 257 -35 17 -64 -3 -68 -48 -3 -41 31 -171 87 -329
49 -138 70 -243 111 -540 17 -124 38 -269 47 -324 11 -71 14 -140 11 -250 -4
-142 -6 -155 -32 -202 -14 -27 -110 -141 -212 -254 -101 -113 -213 -245 -247
-294 -34 -48 -74 -106 -90 -127 -15 -22 -35 -39 -45 -39 -43 2 -156 190 -222
370 -43 116 -49 212 -21 345 41 199 36 266 -20 307 -24 19 -28 19 -56 4 -66
-33 -112 -116 -138 -245 -12 -60 -15 -126 -13 -282 l3 -205 42 -65 c42 -65
116 -215 169 -344 22 -54 28 -84 27 -131 -2 -67 -34 -163 -61 -186 -55 -47
-431 -41 -558 8 -33 13 -70 24 -81 24 -25 0 -67 41 -143 141 -84 109 -100 139
-100 184 0 63 26 156 64 231 19 38 55 114 81 169 l47 100 -2 216 c-1 271 -7
314 -50 352 -59 52 -74 23 -90 -173 -18 -225 -35 -292 -120 -464 -61 -124
-142 -236 -170 -236 -12 0 -55 29 -98 63 -108 89 -270 205 -457 329 -192 126
-291 204 -379 299 -77 83 -106 139 -113 217 -7 71 15 119 79 178 51 47 65 53
223 98 204 58 428 171 546 275 51 44 99 115 120 173 11 33 11 39 -6 58 -36 40
-157 15 -238 -50 -29 -22 -74 -58 -102 -80 -95 -77 -257 -142 -426 -175 -156
-29 -201 -17 -219 60 -12 51 4 223 31 330 28 112 114 282 223 437 51 73 101
147 110 165 29 57 17 146 -18 142 -6 -1 -32 -5 -57 -8z"/>
</g>
</svg>
